<svg width="23" height="23" viewBox="0 0 23 23" fill="none" xmlns="http://www.w3.org/2000/svg">
<path d="M22.5494 3.02605V20.1614C22.5494 21.5134 21.4534 22.6094 20.1014 22.6094H15.5114C15.1734 22.6094 14.8995 22.3355 14.8995 21.9973V14.6536H17.7636C18.0544 14.6537 18.3052 14.449 18.3633 14.1641L18.804 11.9609C18.8222 11.8719 18.7999 11.7794 18.7432 11.7085C18.6863 11.6377 18.601 11.5955 18.5102 11.5938H14.8995V7.61589C14.8995 7.4469 15.0365 7.30989 15.2054 7.30989H18.2654C18.6035 7.30989 18.8774 7.03591 18.8774 6.69792V4.86198C18.8774 4.524 18.6035 4.25 18.2654 4.25H15.2054C13.1775 4.25 11.5335 5.89396 11.5335 7.92188V11.5938H10.028C9.68998 11.5938 9.41599 11.8677 9.41599 12.2058V14.0417C9.41599 14.3797 9.68998 14.6536 10.028 14.6536H11.5335V21.9973C11.5335 22.3355 11.2595 22.6094 10.9214 22.6094H2.96556C1.61357 22.6094 0.517578 21.5134 0.517578 20.1614V3.02605C0.517578 1.67409 1.61357 0.578125 2.96556 0.578125H20.1014C21.4534 0.578125 22.5494 1.67409 22.5494 3.02605Z" fill="currentColor"/>
</svg>
