<svg width="23" height="23" viewBox="0 0 23 23" fill="none" xmlns="http://www.w3.org/2000/svg">
<path fill-rule="evenodd" clip-rule="evenodd" d="M6.78988 0.578125H16.5817C19.9617 0.578125 22.7017 3.31805 22.7017 6.69792V16.4895C22.7017 19.8694 19.9617 22.6094 16.5817 22.6094H6.78988C3.40992 22.6094 0.669922 19.8694 0.669922 16.4895V6.69792C0.669922 3.31805 3.40992 0.578125 6.78988 0.578125ZM17.5053 7.002C18.1813 7.002 18.7293 6.45401 18.7293 5.77803C18.7293 5.10207 18.1813 4.55408 17.5053 4.55408C16.8292 4.55408 16.2812 5.10207 16.2812 5.77803C16.2812 6.45401 16.8292 7.002 17.5053 7.002ZM11.6872 6.08595C8.64515 6.08595 6.17914 8.55188 6.17914 11.5938C6.17914 14.6357 8.64515 17.1016 11.6872 17.1016C14.729 17.1016 17.1951 14.6357 17.1951 11.5938C17.1983 10.132 16.619 8.72917 15.5855 7.69556C14.5517 6.66194 13.1489 6.08269 11.6872 6.08595ZM8.32098 11.5918C8.32098 13.4508 9.82798 14.9578 11.687 14.9578C13.5459 14.9578 15.0529 13.4508 15.0529 11.5918C15.0529 9.73292 13.5459 8.22595 11.687 8.22595C9.82798 8.22595 8.32098 9.73292 8.32098 11.5918Z" fill="currentColor"/>
</svg>
