<svg width="25" height="22" viewBox="0 0 25 22" fill="none" xmlns="http://www.w3.org/2000/svg">
<path d="M24.5827 3.81781C23.9511 4.66032 23.1876 5.39525 22.3217 5.99422C22.3217 6.2143 22.3217 6.43439 22.3217 6.6667C22.3287 10.6634 20.7321 14.4958 17.8901 17.3047C15.048 20.1134 11.1982 21.6638 7.20368 21.6081C4.89433 21.6158 2.61457 21.0885 0.542961 20.0676C0.43126 20.0186 0.359216 19.9082 0.359627 19.7863V19.6517C0.359627 19.4762 0.501894 19.3339 0.677399 19.3339C2.94743 19.259 5.13646 18.472 6.9348 17.0841C4.88012 17.0427 3.03143 15.8255 2.18065 13.954C2.13767 13.8518 2.15105 13.7344 2.21594 13.6446C2.28085 13.5547 2.38789 13.5052 2.4984 13.5138C3.12286 13.5766 3.75357 13.5185 4.35607 13.3426C2.08786 12.8719 0.383554 10.9888 0.139647 8.68415C0.130981 8.5736 0.180523 8.46651 0.270384 8.40158C0.360244 8.33664 0.477439 8.32326 0.579622 8.36625C1.1883 8.63483 1.84538 8.77629 2.51062 8.78197C0.523133 7.47751 -0.33533 4.99641 0.420743 2.74184C0.49878 2.52276 0.686285 2.36092 0.914344 2.31578C1.14239 2.27066 1.37737 2.34889 1.53289 2.52174C4.21489 5.37611 7.89999 7.07701 11.8112 7.26582C11.711 6.86607 11.6617 6.45525 11.6645 6.04313C11.7011 3.88216 13.0383 1.95713 15.0499 1.16926C17.0616 0.381393 19.3495 0.886614 20.8428 2.44839C21.8608 2.25448 22.8449 1.91258 23.7638 1.43355C23.8311 1.39153 23.9166 1.39153 23.9838 1.43355C24.0258 1.50089 24.0258 1.5863 23.9838 1.65364C23.5386 2.67288 22.7868 3.52775 21.8328 4.09904C22.6682 4.00216 23.4888 3.80511 24.2771 3.51214C24.3435 3.46696 24.4308 3.46696 24.4972 3.51214C24.5527 3.53758 24.5943 3.58622 24.6107 3.64512C24.6273 3.70401 24.617 3.76719 24.5827 3.81781Z" fill="currentColor"/>
</svg>
