<svg width="49" height="51" viewBox="0 0 49 51" fill="none" xmlns="http://www.w3.org/2000/svg">
<path fill-rule="evenodd" clip-rule="evenodd" d="M34.6336 11.3216C31.9001 4.75767 25.4952 0.474582 18.3849 0.45559C10.7217 0.415236 3.90782 5.32379 1.51904 12.6053C-0.869735 19.8868 1.71233 27.8778 7.91022 32.3847C14.1081 36.8917 22.5059 36.885 28.6966 32.3681L46.4683 50.14C47.0296 50.7006 47.9388 50.7006 48.5 50.14C49.0605 49.5788 49.0605 48.6696 48.5 48.1084L30.9007 30.5089C35.8958 25.4486 37.3672 17.8854 34.6336 11.3216ZM32.0707 23.7794C29.7756 29.3103 24.3731 32.9125 18.3849 32.9048V32.8281C10.2577 32.8177 3.6601 26.2543 3.60746 18.1273C3.59971 12.1391 7.20193 6.73659 12.7328 4.44143C18.2637 2.14628 24.6326 3.411 28.8669 7.64528C33.1012 11.8796 34.3659 18.2485 32.0707 23.7794Z" fill="currentColor"/>
</svg>
